<?xml version="1.0" encoding="UTF-8" standalone="no"?>
<svg
   xmlns:dc="http://purl.org/dc/elements/1.1/"
   xmlns:cc="http://creativecommons.org/ns#"
   xmlns:rdf="http://www.w3.org/1999/02/22-rdf-syntax-ns#"
   xmlns:svg="http://www.w3.org/2000/svg"
   xmlns="http://www.w3.org/2000/svg"
   xmlns:xlink="http://www.w3.org/1999/xlink"
   xmlns:sodipodi="http://sodipodi.sourceforge.net/DTD/sodipodi-0.dtd"
   xmlns:inkscape="http://www.inkscape.org/namespaces/inkscape"
   inkscape:export-ydpi="72"
   inkscape:export-xdpi="72"
   inkscape:export-filename="/home/seanballais/Code/Projects/bir-efps-remake/promotional.png"
   sodipodi:docname="promotional.svg"
   inkscape:version="1.0 (1.0+r73+1)"
   id="svg8"
   version="1.1"
   viewBox="0 0 211.66666 158.75"
   height="600"
   width="800">
  <defs
     id="defs2">
    <linearGradient
       id="linearGradient957"
       inkscape:collect="always">
      <stop
         id="stop953"
         offset="0"
         style="stop-color:#ffcc00;stop-opacity:1;" />
      <stop
         id="stop955"
         offset="1"
         style="stop-color:#ffeeaa;stop-opacity:1" />
    </linearGradient>
    <linearGradient
       id="linearGradient949"
       inkscape:collect="always">
      <stop
         id="stop945"
         offset="0"
         style="stop-color:#4d4d4d;stop-opacity:1;" />
      <stop
         id="stop947"
         offset="1"
         style="stop-color:#666666;stop-opacity:1" />
    </linearGradient>
    <linearGradient
       id="linearGradient941"
       inkscape:collect="always">
      <stop
         id="stop937"
         offset="0"
         style="stop-color:#d38d5f;stop-opacity:1;" />
      <stop
         id="stop939"
         offset="1"
         style="stop-color:#d3bc5f;stop-opacity:1" />
    </linearGradient>
    <linearGradient
       gradientUnits="userSpaceOnUse"
       y2="46.776779"
       x2="120.80717"
       y1="47.045425"
       x1="96.753601"
       id="linearGradient943"
       xlink:href="#linearGradient941"
       inkscape:collect="always" />
    <linearGradient
       gradientUnits="userSpaceOnUse"
       y2="40.14114"
       x2="139.33801"
       y1="38.778095"
       x1="76.062492"
       id="linearGradient951"
       xlink:href="#linearGradient949"
       inkscape:collect="always" />
    <linearGradient
       gradientTransform="matrix(1,0,0,0.45843313,0,59.178769)"
       gradientUnits="userSpaceOnUse"
       y2="113.06605"
       x2="169.60793"
       y1="113.33893"
       x1="39.990295"
       id="linearGradient959"
       xlink:href="#linearGradient957"
       inkscape:collect="always" />
  </defs>
  <sodipodi:namedview
     inkscape:window-maximized="1"
     inkscape:window-y="30"
     inkscape:window-x="0"
     inkscape:window-height="705"
     inkscape:window-width="1366"
     inkscape:guide-bbox="true"
     showguides="true"
     borderlayer="true"
     inkscape:showpageshadow="false"
     units="px"
     showgrid="false"
     inkscape:document-rotation="0"
     inkscape:current-layer="layer2"
     inkscape:document-units="px"
     inkscape:cy="207.79969"
     inkscape:cx="208.37095"
     inkscape:zoom="0.5"
     inkscape:pageshadow="2"
     inkscape:pageopacity="0.0"
     borderopacity="1.0"
     bordercolor="#666666"
     pagecolor="#ffffff"
     id="base">
    <sodipodi:guide
       id="guide833"
       orientation="1,0"
       position="105.66947,132.2811" />
  </sodipodi:namedview>
  <metadata
     id="metadata5">
    <rdf:RDF>
      <cc:Work
         rdf:about="">
        <dc:format>image/svg+xml</dc:format>
        <dc:type
           rdf:resource="http://purl.org/dc/dcmitype/StillImage" />
        <dc:title></dc:title>
      </cc:Work>
    </rdf:RDF>
  </metadata>
  <g
     inkscape:label="Background"
     id="layer3"
     inkscape:groupmode="layer">
    <path
       transform="scale(0.26458333)"
       d="M 313.92969 62.613281 A 121.29136 121.29136 0 0 0 192.63867 183.9043 A 121.29136 121.29136 0 0 0 201.4707 229.33984 A 178.70261 178.70261 0 0 0 138.48242 365.51953 A 178.70261 178.70261 0 0 0 317.18555 544.22266 A 178.70261 178.70261 0 0 0 472.21875 454.39453 A 165.17541 165.17541 0 0 0 516.97266 460.57227 A 165.17541 165.17541 0 0 0 682.14844 295.39648 A 165.17541 165.17541 0 0 0 516.97266 130.2207 A 165.17541 165.17541 0 0 0 431.49023 154.06055 A 121.29136 121.29136 0 0 0 313.92969 62.613281 z "
       style="fill:#87deaa;fill-opacity:0.43422535;stroke:none;stroke-width:37.7953;stroke-miterlimit:4;stroke-dasharray:none;stroke-opacity:1"
       id="path993" />
  </g>
  <g
     id="layer1"
     inkscape:groupmode="layer"
     inkscape:label="Woman">
    <path
       d="m 98.443038,17.613495 a 13.153665,9.8515407 0 0 0 -13.153721,9.851594 13.153665,9.8515407 0 0 0 0.02946,0.658357 11.233858,10.824261 0 0 0 -9.256281,10.654649 11.233858,10.824261 0 0 0 10.537857,10.803475 10.181183,6.4919695 0 0 0 -1.034563,2.85047 10.181183,6.4919695 0 0 0 10.180775,6.49211 10.181183,6.4919695 0 0 0 9.922905,-5.03845 11.010835,10.576513 0 0 0 0.49402,0.01085 11.010835,10.576513 0 0 0 7.16598,-2.546615 12.485035,12.423095 0 0 0 6.81405,2.013831 12.485035,12.423095 0 0 0 12.48503,-12.423015 12.485035,12.423095 0 0 0 -12.48503,-12.423013 12.485035,12.423095 0 0 0 -1.53427,0.09405 7.4508277,9.4211493 0 0 0 -6.37584,-4.54546 7.4508277,9.4211493 0 0 0 -1.36788,0.160197 13.153665,9.8515407 0 0 0 -12.422488,-6.613033 z"
       style="fill:url(#linearGradient951);fill-opacity:1;stroke:none;stroke-width:1.265"
       id="path842" />
    <path
       sodipodi:nodetypes="ccccc"
       d="m 81.384311,64.997434 c 1.582274,-7.458996 49.358249,-4.980025 48.687969,0 V 109.84106 H 81.384311 Z"
       style="fill:#00e498;fill-opacity:0.99843299;stroke:none;stroke-width:1.265"
       id="rect837" />
    <ellipse
       ry="15.031791"
       rx="10.038602"
       cy="44.412697"
       cx="105.76659"
       id="path835"
       style="fill:url(#linearGradient943);fill-opacity:1;stroke-width:0.758654" />
    <rect
       y="57.730362"
       x="102.69095"
       height="6.2410388"
       width="5.8808498"
       id="rect840"
       style="fill:#d38d5f;fill-opacity:1;stroke:none;stroke-width:1.57153" />
    <path
       style="fill:none;stroke:#00e498;stroke-width:10;stroke-linecap:butt;stroke-linejoin:miter;stroke-miterlimit:4;stroke-dasharray:none;stroke-opacity:1"
       d="M 84.550115,67.994959 C 24.82237,96.18078 80.770214,104.17422 98.256481,105.23203"
       id="path881"
       sodipodi:nodetypes="cc" />
    <path
       sodipodi:nodetypes="cc"
       id="path881-3"
       d="m 127.03327,68.298856 c 59.72773,28.185821 3.77989,36.179254 -13.70638,37.237064"
       style="fill:none;stroke:#00e498;stroke-width:10;stroke-linecap:butt;stroke-linejoin:miter;stroke-miterlimit:4;stroke-dasharray:none;stroke-opacity:1" />
  </g>
  <g
     inkscape:label="Devices"
     id="layer2"
     inkscape:groupmode="layer">
    <path
       id="rect862"
       style="fill:url(#linearGradient959);fill-opacity:1;stroke:none;stroke-width:0.993048"
       d="M 37.99967,109.27391 H 172.9717 c 0.49247,0.10972 0.94815,3.16283 0,3.3888 H 37.99967 c -0.607583,-0.0114 -0.951882,-3.44438 0,-3.3888 z"
       sodipodi:nodetypes="ccccc" />
    <path
       id="rect916"
       style="fill:#4d4d4d;fill-opacity:1;stroke:none;stroke-width:8.23494;stroke-miterlimit:4;stroke-dasharray:none;stroke-opacity:1"
       d="M 82.267575,90.794313 H 129.35397 L 123.87138,109.3671 H 86.865825 Z"
       sodipodi:nodetypes="ccccc" />
    <rect
       y="108.36324"
       x="85.942909"
       height="1.003859"
       width="39.573486"
       id="rect934"
       style="fill:#4d4d4d;fill-opacity:1;stroke:none;stroke-width:65.4819;stroke-miterlimit:4;stroke-dasharray:none;stroke-opacity:1" />
  </g>
</svg>
